<svg width="14" height="14" viewBox="0 0 14 14" fill="none" xmlns="http://www.w3.org/2000/svg">
<path d="M12.5807 0.233561C12.8907 -0.0778539 13.3933 -0.0778538 13.7033 0.233561C14.0132 0.544977 14.0132 1.04988 13.7033 1.3613L8.12254 6.96772L13.7675 12.6386C14.0775 12.9501 14.0775 13.455 13.7675 13.7664C13.4575 14.0778 12.9549 14.0778 12.6449 13.7664L6.99998 8.09545L1.35505 13.7664C1.04507 14.0778 0.542478 14.0778 0.23249 13.7664C-0.077497 13.455 -0.0774967 12.9501 0.23249 12.6386L5.87742 6.96772L0.296702 1.3613C-0.0132854 1.04988 -0.0132854 0.544977 0.296702 0.233561C0.60669 -0.0778538 1.10928 -0.0778539 1.41927 0.233561L6.99998 5.83998L12.5807 0.233561Z" fill="#1B2028"/>
</svg>
