<svg width="22" height="26" viewBox="0 0 22 26" fill="none" xmlns="http://www.w3.org/2000/svg">
<path d="M18.3645 7.8182C20.2736 7.8182 21.91 6.18184 21.91 4.27275C21.91 2.36366 20.2736 0.727295 18.3645 0.727295C16.4554 0.727295 14.8191 2.36366 14.8191 4.27275C14.8191 4.54548 14.8191 4.8182 14.9554 4.95457L6.0918 10.5455C5.54634 9.86366 4.5918 9.45457 3.63725 9.45457C1.72816 9.45457 0.0917969 11.0909 0.0917969 13C0.0917969 14.9091 1.72816 16.5455 3.63725 16.5455C4.5918 16.5455 5.54634 16.1364 6.0918 15.5909L14.8191 21.0455C14.8191 21.3182 14.8191 21.4546 14.8191 21.7273C14.8191 23.6364 16.4554 25.2728 18.3645 25.2728C20.2736 25.2728 21.91 23.6364 21.91 21.7273C21.91 19.8182 20.2736 18.1818 18.3645 18.1818C17.41 18.1818 16.4554 18.5909 15.7736 19.2728L7.18271 13.8182C7.18271 13.5455 7.31907 13.4091 7.31907 13.1364C7.31907 12.8637 7.31907 12.5909 7.18271 12.4546L15.91 6.86366C16.4554 7.40911 17.41 7.8182 18.3645 7.8182ZM18.3645 20.2273C19.1827 20.2273 19.8645 20.9091 19.8645 21.7273C19.8645 22.5455 19.1827 23.2273 18.3645 23.2273C17.5463 23.2273 16.8645 22.5455 16.8645 21.7273C16.8645 20.9091 17.5463 20.2273 18.3645 20.2273ZM18.3645 2.77275C19.1827 2.77275 19.8645 3.45457 19.8645 4.27275C19.8645 5.09093 19.1827 5.77275 18.3645 5.77275C17.5463 5.77275 16.8645 5.09093 16.8645 4.27275C16.8645 3.45457 17.5463 2.77275 18.3645 2.77275ZM3.63725 14.5C2.81907 14.5 2.13725 13.8182 2.13725 13C2.13725 12.1818 2.81907 11.5 3.63725 11.5C4.45543 11.5 5.13725 12.1818 5.13725 13C5.13725 13.8182 4.45543 14.5 3.63725 14.5Z" fill="#6E7785"/>
</svg>
